<svg width="38" height="47" viewBox="0 0 38 47" fill="none" xmlns="http://www.w3.org/2000/svg">
<path d="M1.13916 7.38034C7.32364 7.38034 13.3495 5.3469 18.1068 1.59273L18.5826 1.12338L19.0583 1.59273C23.8156 5.3469 29.8415 7.38034 36.026 7.38034C33.9645 13.6373 32.8545 18.33 32.8545 21.4585C32.8545 24.587 33.9645 26.1512 36.026 26.1512V30.8439C24.4499 40.2294 18.5826 44.9221 18.5826 44.9221C18.5826 44.9221 12.7152 40.2294 1.13916 30.8439V26.1512C3.20065 24.8998 4.31069 23.3356 4.31069 21.4585C4.31069 17.0786 3.20065 12.3859 1.13916 7.38034Z" fill="url(#paint0_linear_15_356)"/>
<path fill-rule="evenodd" clip-rule="evenodd" d="M18.5823 0C18.8844 0 19.1741 0.118384 19.3877 0.329103L19.8183 0.753925C24.3594 4.31903 30.1124 6.25696 36.0257 6.25696C36.3903 6.25696 36.7328 6.42913 36.9471 6.72008C37.1614 7.01103 37.2215 7.38559 37.1088 7.72761C35.0476 13.9837 33.9931 18.5255 33.9931 21.4585C33.9931 22.924 34.2588 23.8351 34.6108 24.3495C34.9132 24.7915 35.3342 25.0278 36.0257 25.0278C36.6547 25.0278 37.1646 25.5308 37.1646 26.1513V30.844C37.1646 31.18 37.0121 31.4985 36.7489 31.7119C30.9598 36.4054 26.598 39.9257 23.6832 42.2729C22.2258 43.4464 21.1301 44.3267 20.3987 44.9137C20.033 45.2072 19.7583 45.4273 19.575 45.5742L19.3007 45.7938L19.2996 45.7947L18.5823 44.9221L17.8649 45.7947L17.8639 45.7938L17.5896 45.5742C17.4063 45.4273 17.1316 45.2072 16.7659 44.9137C16.0345 44.3267 14.9388 43.4464 13.4814 42.2729C10.5666 39.9257 6.20476 36.4054 0.415736 31.7119C0.152534 31.4985 5.02494e-06 31.18 5.02494e-06 30.844V26.1513C5.02494e-06 25.7611 0.20518 25.3989 0.542001 25.1945C2.40062 24.0662 3.17153 22.8121 3.17153 21.4585C3.17153 17.2638 2.10766 12.7175 0.0837508 7.80321C-0.0588929 7.45685 -0.0175262 7.06319 0.194103 6.75306C0.405732 6.44293 0.759894 6.25696 1.13889 6.25696C7.05219 6.25696 12.8051 4.31903 17.3463 0.753921L17.7769 0.329103C17.9905 0.118384 18.2802 0 18.5823 0ZM18.5823 2.65392C14.0828 6.12432 8.53786 8.13415 2.78716 8.4575C4.50984 13.0059 5.4493 17.3436 5.4493 21.4585C5.4493 23.6616 4.22879 25.4215 2.27777 26.7586V30.3131C7.8583 34.8368 12.0791 38.2432 14.9218 40.5323C16.3783 41.7051 17.4729 42.5846 18.2034 43.1708C18.343 43.2828 18.4693 43.3842 18.5823 43.4748C18.6953 43.3842 18.8216 43.2828 18.9612 43.1708C19.6917 42.5846 20.7863 41.7051 22.2428 40.5323C25.0855 38.2432 29.3063 34.8368 34.8868 30.3131V27.1353C34.0116 26.9083 33.2675 26.4024 32.7229 25.6066C32.0046 24.5568 31.7153 23.1216 31.7153 21.4585C31.7153 18.3923 32.7071 14.0328 34.4793 8.46305C28.6923 8.15784 23.1083 6.14482 18.5823 2.65392ZM18.5823 44.9221L17.8649 45.7947C18.283 46.1291 18.8815 46.1291 19.2996 45.7947L18.5823 44.9221Z" fill="#09075F"/>
<path d="M15.9258 12.2328H21.2568V20.2789H15.9258V12.2328Z" fill="white"/>
<path d="M7.7688 25.5377L7.7688 20.2791L15.9257 20.2791L15.9257 25.5377L7.7688 25.5377Z" fill="#F80D38"/>
<path d="M29.3958 25.4885L29.3958 20.2298L21.2389 20.2298L21.2389 25.4885L29.3958 25.4885Z" fill="#F80D38"/>
<path d="M21.2566 33.8127L15.9256 33.8127L15.9256 25.5377L21.2566 25.5377L21.2566 33.8127Z" fill="white"/>
<defs>
<linearGradient id="paint0_linear_15_356" x1="18.5826" y1="1.12338" x2="18.5826" y2="44.9221" gradientUnits="userSpaceOnUse">
<stop stop-color="#100DB4"/>
<stop offset="1" stop-color="#070641"/>
</linearGradient>
</defs>
</svg>
