<svg width="20" height="20" viewBox="0 0 20 20" fill="none" xmlns="http://www.w3.org/2000/svg">
<path d="M9.61865 13.7118C11.8699 13.7118 13.7118 11.8698 13.7118 9.61857C13.7118 7.36732 11.8699 5.52539 9.61865 5.52539" fill="#343434"/>
<path d="M9.61857 13.7118C11.8792 13.7118 13.7118 11.8792 13.7118 9.61857C13.7118 7.35797 11.8792 5.52539 9.61857 5.52539C7.35797 5.52539 5.52539 7.35797 5.52539 9.61857C5.52539 11.8792 7.35797 13.7118 9.61857 13.7118Z" stroke="#343434" stroke-width="1.5" stroke-linecap="round" stroke-linejoin="round"/>
<path d="M16.4409 9.61856H18.4875" stroke="#343434" stroke-width="1.5" stroke-linecap="round" stroke-linejoin="round"/>
<path d="M0.75 9.61856H2.79659" stroke="#343434" stroke-width="1.5" stroke-linecap="round" stroke-linejoin="round"/>
<path d="M9.61865 16.4405V18.4871" stroke="#343434" stroke-width="1.5" stroke-linecap="round" stroke-linejoin="round"/>
<path d="M9.61865 0.75V2.79659" stroke="#343434" stroke-width="1.5" stroke-linecap="round" stroke-linejoin="round"/>
<path d="M15.895 3.34241L14.4624 4.77492" stroke="#343434" stroke-width="1.5" stroke-linecap="round" stroke-linejoin="round"/>
<path d="M15.8267 15.8266L14.394 14.3939" stroke="#343434" stroke-width="1.5" stroke-linecap="round" stroke-linejoin="round"/>
<path d="M4.91162 4.91144L3.479 3.47876" stroke="#343434" stroke-width="1.5" stroke-linecap="round" stroke-linejoin="round"/>
<path d="M4.7749 14.4622L3.34229 15.8947" stroke="#343434" stroke-width="1.5" stroke-linecap="round" stroke-linejoin="round"/>
</svg>
